<svg width="36" height="37" viewBox="0 0 36 37" fill="none" xmlns="http://www.w3.org/2000/svg">
<rect x="0.00585938" y="0.953125" width="35.6378" height="35.6379" rx="8.90946" fill="#F7F9FC"/>
<g clip-path="url(#clip0_238_21921)">
<path d="M26.3993 26.0678C16.7819 30.6449 10.8132 26.8154 6.99248 24.4894C6.75605 24.3428 6.35421 24.5237 6.70286 24.9242C7.97574 26.4676 12.1472 30.1876 17.5922 30.1876C23.041 30.1876 26.2825 27.2145 26.688 26.6958C27.0908 26.1816 26.8063 25.8979 26.3992 26.0678H26.3993ZM29.1003 24.5761C28.8421 24.2398 27.5299 24.1771 26.7041 24.2786C25.877 24.3771 24.6356 24.8826 24.7435 25.1861C24.7989 25.2998 24.9119 25.2488 25.4801 25.1977C26.0498 25.1408 27.6459 24.9394 27.9784 25.3742C28.3126 25.8119 27.4694 27.8973 27.3154 28.2336C27.1666 28.5699 27.3723 28.6566 27.6517 28.4326C27.9274 28.2087 28.4263 27.6288 28.7612 26.8083C29.0938 25.9832 29.2966 24.8322 29.1003 24.5761H29.1003Z" fill="#FF9900"/>
<path fill-rule="evenodd" clip-rule="evenodd" d="M19.9309 16.7287C19.9309 17.9296 19.9612 18.9312 19.3542 19.9977C18.8643 20.8649 18.0882 21.3982 17.2211 21.3982C16.0374 21.3982 15.3481 20.4963 15.3481 19.1653C15.3481 16.5379 17.7023 16.061 19.9309 16.061V16.7287ZM23.0395 24.2424C22.8357 24.4244 22.5409 24.4375 22.3112 24.3161C21.288 23.4663 21.1058 23.0718 20.5422 22.261C18.8513 23.9866 17.6547 24.5025 15.4608 24.5025C12.8681 24.5025 10.8477 22.9026 10.8477 19.6986C10.8477 17.197 12.2048 15.493 14.134 14.6606C15.8077 13.9235 18.1446 13.7934 19.9309 13.5897V13.1908C19.9309 12.458 19.9872 11.5909 19.558 10.958C19.1808 10.39 18.4611 10.1558 17.828 10.1558C16.6531 10.1558 15.6039 10.7585 15.3481 12.0071C15.296 12.2847 15.0923 12.5578 14.8148 12.5708L11.8232 12.25C11.5717 12.1936 11.2943 11.9898 11.3636 11.6039C12.053 7.97938 15.3263 6.88672 18.2572 6.88672C19.7574 6.88672 21.717 7.28564 22.9007 8.42161C24.4009 9.82198 24.2578 11.6906 24.2578 13.7241V18.528C24.2578 19.9717 24.8561 20.6047 25.4197 21.3852C25.6191 21.6626 25.6625 21.9966 25.411 22.2046C24.7823 22.7292 23.6637 23.7048 23.0481 24.2511L23.0394 24.2424" fill="black"/>
<path d="M26.3993 26.0678C16.7819 30.6449 10.8132 26.8154 6.99248 24.4894C6.75605 24.3428 6.35421 24.5237 6.70286 24.9242C7.97574 26.4676 12.1472 30.1876 17.5922 30.1876C23.041 30.1876 26.2825 27.2145 26.688 26.6958C27.0908 26.1816 26.8063 25.8979 26.3992 26.0678H26.3993ZM29.1003 24.5761C28.8421 24.2398 27.5299 24.1771 26.7041 24.2786C25.877 24.3771 24.6356 24.8826 24.7435 25.1861C24.7989 25.2998 24.9119 25.2488 25.4801 25.1977C26.0498 25.1408 27.6459 24.9394 27.9784 25.3742C28.3126 25.8119 27.4694 27.8973 27.3154 28.2336C27.1666 28.5699 27.3723 28.6566 27.6517 28.4326C27.9274 28.2087 28.4263 27.6288 28.7612 26.8083C29.0938 25.9832 29.2966 24.8322 29.1003 24.5761H29.1003Z" fill="#FF9900"/>
<path fill-rule="evenodd" clip-rule="evenodd" d="M19.9309 16.7287C19.9309 17.9296 19.9612 18.9312 19.3542 19.9977C18.8643 20.8649 18.0882 21.3982 17.2211 21.3982C16.0374 21.3982 15.3481 20.4963 15.3481 19.1653C15.3481 16.5379 17.7023 16.061 19.9309 16.061V16.7287ZM23.0395 24.2424C22.8357 24.4244 22.5409 24.4375 22.3112 24.3161C21.288 23.4663 21.1058 23.0718 20.5422 22.261C18.8513 23.9866 17.6547 24.5025 15.4608 24.5025C12.8681 24.5025 10.8477 22.9026 10.8477 19.6986C10.8477 17.197 12.2048 15.493 14.134 14.6606C15.8077 13.9235 18.1446 13.7934 19.9309 13.5897V13.1908C19.9309 12.458 19.9872 11.5909 19.558 10.958C19.1808 10.39 18.4611 10.1558 17.828 10.1558C16.6531 10.1558 15.6039 10.7585 15.3481 12.0071C15.296 12.2847 15.0923 12.5578 14.8148 12.5708L11.8232 12.25C11.5717 12.1936 11.2943 11.9898 11.3636 11.6039C12.053 7.97938 15.3263 6.88672 18.2572 6.88672C19.7574 6.88672 21.717 7.28564 22.9007 8.42161C24.4009 9.82198 24.2578 11.6906 24.2578 13.7241V18.528C24.2578 19.9717 24.8561 20.6047 25.4197 21.3852C25.6191 21.6626 25.6625 21.9966 25.411 22.2046C24.7823 22.7292 23.6637 23.7048 23.0481 24.2511L23.0394 24.2424" fill="black"/>
</g>
<defs>
<clipPath id="clip0_238_21921">
<rect width="23.7586" height="23.7586" fill="white" transform="translate(5.94727 6.89062)"/>
</clipPath>
</defs>
</svg>
