<svg width="36" height="37" viewBox="0 0 36 37" fill="none" xmlns="http://www.w3.org/2000/svg">
<rect x="0.00585938" y="0.409912" width="35.6378" height="35.6379" rx="8.90946" fill="#E41321"/>
<path fill-rule="evenodd" clip-rule="evenodd" d="M19.4287 25.3511H24.5572L24.5572 25.3509C27.7808 25.3509 29.7058 23.8185 29.7058 21.2505C29.7058 19.4903 29.0012 18.2736 27.6927 17.7338C28.23 17.14 28.5005 16.331 28.5005 15.3118C28.5005 13.5503 27.7518 11.4491 24.1835 11.4491H19.4287C19.1456 11.4491 18.9154 11.6794 18.9154 11.9637V24.8352C18.915 24.9717 18.9689 25.1027 19.0652 25.1995C19.1615 25.2962 19.2922 25.3507 19.4287 25.3511ZM6.45936 25.3509H17.1112L17.11 25.3496C17.2088 25.3488 17.3052 25.3196 17.3878 25.2656C17.4705 25.2116 17.5359 25.135 17.5763 25.0449C17.6167 24.9548 17.6304 24.855 17.6158 24.7574C17.6011 24.6597 17.5588 24.5683 17.4938 24.494L13.9494 19.85C15.4605 19.2549 16.3979 17.7904 16.3979 15.9257C16.3979 13.1224 14.5433 11.449 11.4356 11.449H6.45936C6.17627 11.449 5.94727 11.6792 5.94727 11.9636V24.8351C5.94694 24.9026 5.95993 24.9695 5.9855 25.032C6.01108 25.0945 6.04872 25.1513 6.09629 25.1992C6.14386 25.2472 6.20041 25.2852 6.26271 25.3113C6.32502 25.3373 6.39184 25.3508 6.45936 25.3509Z" fill="white"/>
</svg>
