<svg width="86" height="86" viewBox="0 0 86 86" fill="none" xmlns="http://www.w3.org/2000/svg">
<rect width="86" height="86.0001" rx="18" fill="url(#paint0_linear_238_22474)"/>
<path d="M53.4215 33.8528C51.4004 33.8528 49.7573 35.475 49.7573 37.4704C49.7594 40.2108 50.7638 42.8546 52.5791 44.8979C53.3104 45.7258 54.1559 46.4439 55.09 47.0302C55.6574 46.1784 56.1262 45.264 56.4871 44.305C57.3839 41.9078 57.5699 39.3003 57.0226 36.7988C57.0074 36.7221 56.9881 36.6455 56.9698 36.5688C56.7589 35.7863 56.2971 35.0957 55.656 34.6044C55.0149 34.1131 54.2305 33.8485 53.4245 33.8517L53.4215 33.8528ZM30.8146 44.305C31.1754 45.2646 31.6453 46.1791 32.2149 47.0302C33.1474 46.4431 33.9918 45.7251 34.7227 44.8979C36.5408 42.8542 37.5462 40.2079 37.5465 37.4653C37.5465 35.4709 35.9034 33.8476 33.8793 33.8476C33.0735 33.8443 32.2892 34.1088 31.6481 34.5999C31.007 35.091 30.5451 35.7814 30.334 36.5637C30.3188 36.6404 30.2974 36.717 30.2812 36.7937C30.0791 37.7273 29.9769 38.68 29.9763 39.6355C29.9746 41.2293 30.2597 42.8102 30.8177 44.3019L30.8146 44.305ZM71.5065 42.5355L75 44.2631C72.4739 49.2382 67.2622 52.6586 61.2375 52.6586C59.5179 52.6593 57.8099 52.3747 56.1823 51.8163C52.8465 55.1372 48.343 57 43.6499 57C38.9568 57 34.4532 55.1372 31.1175 51.8163C29.4897 52.3755 27.7812 52.6601 26.0612 52.6586C19.7917 52.6586 14.397 48.9541 12 43.6416L15.5758 42.0653C16.4981 44.0801 17.9768 45.7857 19.8357 46.9788C21.6946 48.1719 23.8552 48.8022 26.0602 48.7946C26.8952 48.794 27.7277 48.7036 28.5436 48.5247C26.282 44.7844 25.5307 40.3146 26.4443 36.0342C26.4809 35.8655 26.5205 35.704 26.5611 35.5384C27.4238 32.348 30.3716 30 33.8773 30H34.0805C34.2939 30.0061 34.5062 30.0194 34.7166 30.0429C38.5057 30.4518 41.4484 33.6207 41.4484 37.4725C41.4484 42.6439 38.8278 47.2091 34.8294 49.9487C37.3099 52.0128 40.4282 53.1421 43.6473 53.1421C46.8665 53.1421 49.9848 52.0128 52.4653 49.9487C48.4658 47.2081 45.8462 42.6418 45.8462 37.4725C45.8462 33.6238 48.793 30.4549 52.575 30.0419C52.7854 30.0204 52.9967 30.0072 53.2111 30.001H53.4195C56.9251 30.001 59.8719 32.3521 60.7356 35.5425C60.7762 35.7061 60.8159 35.8696 60.8524 36.0373C61.7681 40.3207 61.0164 44.7943 58.7521 48.537C59.5669 48.7157 60.3985 48.8062 61.2325 48.8069C63.3503 48.8131 65.4288 48.2316 67.2395 47.1264C69.0501 46.0213 70.5227 44.4352 71.4954 42.5427L71.5065 42.5355Z" fill="white"/>
<defs>
<linearGradient id="paint0_linear_238_22474" x1="43" y1="0" x2="43" y2="86.0001" gradientUnits="userSpaceOnUse">
<stop stop-color="#ED2761"/>
<stop offset="1" stop-color="#ED2761" stop-opacity="0.7"/>
</linearGradient>
</defs>
</svg>
