<svg width="86" height="86" viewBox="0 0 86 86" fill="none" xmlns="http://www.w3.org/2000/svg">
<rect width="86" height="86.0001" rx="18" fill="url(#paint0_linear_238_22467)"/>
<path d="M63.6921 60.6204C40.4837 71.6657 26.0803 62.4244 16.8602 56.8115C16.2897 56.4578 15.32 56.8942 16.1613 57.8606C19.233 61.5851 29.2995 70.5621 42.4392 70.5621C55.588 70.5621 63.4103 63.3875 64.3888 62.136C65.3607 60.895 64.6742 60.2105 63.6919 60.6204H63.6921ZM70.2102 57.0208C69.5869 56.2092 66.4204 56.0579 64.4276 56.3027C62.4318 56.5405 59.436 57.7603 59.6964 58.4927C59.8301 58.767 60.1029 58.644 61.474 58.5207C62.8488 58.3835 66.7003 57.8974 67.5028 58.9465C68.3091 60.0029 66.2744 65.0352 65.9028 65.8468C65.5438 66.6584 66.04 66.8677 66.7144 66.3271C67.3796 65.7868 68.5837 64.3875 69.3918 62.4072C70.1943 60.4162 70.6837 57.6387 70.2099 57.0208H70.2102Z" fill="#FF9900"/>
<path fill-rule="evenodd" clip-rule="evenodd" d="M48.0874 38.0843C48.0874 40.9824 48.1606 43.3993 46.6958 45.973C45.5134 48.0657 43.6406 49.3525 41.5481 49.3525C38.6917 49.3525 37.0282 47.1762 37.0282 43.9643C37.0282 37.6238 42.7093 36.473 48.0874 36.473V38.0843ZM55.589 56.2161C55.0972 56.6554 54.3857 56.687 53.8313 56.3939C51.3621 54.3433 50.9226 53.3912 49.5625 51.4346C45.4821 55.5988 42.5944 56.8438 37.3003 56.8438C31.0436 56.8438 26.168 52.983 26.168 45.2511C26.168 39.2143 29.443 35.1024 34.0986 33.0937C38.1373 31.3148 43.7767 31.001 48.0874 30.5094V29.5468C48.0874 27.7785 48.2232 25.686 47.1876 24.1586C46.2772 22.7879 44.5404 22.2229 43.0127 22.2229C40.1775 22.2229 37.6455 23.6771 37.0282 26.6904C36.9025 27.3601 36.4109 28.0193 35.7414 28.0506L28.522 27.2765C27.9153 27.1403 27.2457 26.6487 27.4131 25.7173C29.0767 16.9708 36.9757 14.334 44.0484 14.334C47.6685 14.334 52.3976 15.2966 55.254 18.0379C58.8741 21.4173 58.5288 25.9266 58.5288 30.8336V42.4263C58.5288 45.9103 59.9726 47.4378 61.3327 49.3212C61.8139 49.9908 61.9187 50.7966 61.3118 51.2985C59.7947 52.5644 57.0953 54.9187 55.6097 56.2371L55.5888 56.2161" fill="#100C1A"/>
<path d="M63.6921 60.6204C40.4837 71.6657 26.0803 62.4244 16.8602 56.8115C16.2897 56.4578 15.32 56.8942 16.1613 57.8606C19.233 61.5851 29.2995 70.5621 42.4392 70.5621C55.588 70.5621 63.4103 63.3875 64.3888 62.136C65.3607 60.895 64.6742 60.2105 63.6919 60.6204H63.6921ZM70.2102 57.0208C69.5869 56.2092 66.4204 56.0579 64.4276 56.3027C62.4318 56.5405 59.436 57.7603 59.6964 58.4927C59.8301 58.767 60.1029 58.644 61.474 58.5207C62.8488 58.3835 66.7003 57.8974 67.5028 58.9465C68.3091 60.0029 66.2744 65.0352 65.9028 65.8468C65.5438 66.6584 66.04 66.8677 66.7144 66.3271C67.3796 65.7868 68.5837 64.3875 69.3918 62.4072C70.1943 60.4162 70.6837 57.6387 70.2099 57.0208H70.2102Z" fill="#FF9900"/>
<path fill-rule="evenodd" clip-rule="evenodd" d="M48.0874 38.0843C48.0874 40.9824 48.1606 43.3993 46.6958 45.973C45.5134 48.0657 43.6406 49.3525 41.5481 49.3525C38.6917 49.3525 37.0282 47.1762 37.0282 43.9643C37.0282 37.6238 42.7093 36.473 48.0874 36.473V38.0843ZM55.589 56.2161C55.0972 56.6554 54.3857 56.687 53.8313 56.3939C51.3621 54.3433 50.9226 53.3912 49.5625 51.4346C45.4821 55.5988 42.5944 56.8438 37.3003 56.8438C31.0436 56.8438 26.168 52.983 26.168 45.2511C26.168 39.2143 29.443 35.1024 34.0986 33.0937C38.1373 31.3148 43.7767 31.001 48.0874 30.5094V29.5468C48.0874 27.7785 48.2232 25.686 47.1876 24.1586C46.2772 22.7879 44.5404 22.2229 43.0127 22.2229C40.1775 22.2229 37.6455 23.6771 37.0282 26.6904C36.9025 27.3601 36.4109 28.0193 35.7414 28.0506L28.522 27.2765C27.9153 27.1403 27.2457 26.6487 27.4131 25.7173C29.0767 16.9708 36.9757 14.334 44.0484 14.334C47.6685 14.334 52.3976 15.2966 55.254 18.0379C58.8741 21.4173 58.5288 25.9266 58.5288 30.8336V42.4263C58.5288 45.9103 59.9726 47.4378 61.3327 49.3212C61.8139 49.9908 61.9187 50.7966 61.3118 51.2985C59.7947 52.5644 57.0953 54.9187 55.6097 56.2371L55.5888 56.2161" fill="#100C1A"/>
<defs>
<linearGradient id="paint0_linear_238_22467" x1="43" y1="0" x2="43" y2="86.0001" gradientUnits="userSpaceOnUse">
<stop stop-color="#FBFBFE"/>
<stop offset="1" stop-color="#FBFBFE" stop-opacity="0.7"/>
</linearGradient>
</defs>
</svg>
