<svg width="14" height="14" viewBox="0 0 14 14" fill="none" xmlns="http://www.w3.org/2000/svg">
<path opacity="0.4" d="M9.75687 5.10132H4.4112C2.62931 5.10132 1.51562 6.215 1.51562 7.99689V9.43911C1.51562 11.2266 2.62931 12.3403 4.4112 12.3403H9.75131C11.5332 12.3403 12.6469 11.2266 12.6469 9.44468V7.99689C12.6524 6.215 11.5388 5.10132 9.75687 5.10132Z" fill="#FDC43A"/>
<path d="M9.24493 7.01147L7.37952 8.87688C7.21803 9.03837 6.95075 9.03837 6.78927 8.87688L4.92385 7.01147C4.76236 6.84998 4.76236 6.5827 4.92385 6.42121C5.08533 6.25973 5.35262 6.25973 5.5141 6.42121L6.66676 7.57388V1.62124C6.66676 1.39294 6.85609 1.20361 7.08439 1.20361C7.3127 1.20361 7.50202 1.39294 7.50202 1.62124V7.57388L8.65468 6.42121C8.73821 6.33769 8.84401 6.29871 8.94981 6.29871C9.05561 6.29871 9.16141 6.33769 9.24493 6.42121C9.41199 6.5827 9.41199 6.84441 9.24493 7.01147Z" fill="#FDC43A"/>
</svg>
