<svg width="86" height="86" viewBox="0 0 86 86" fill="none" xmlns="http://www.w3.org/2000/svg">
<rect width="86" height="86.0001" rx="18" fill="url(#paint0_linear_238_22468)"/>
<path fill-rule="evenodd" clip-rule="evenodd" d="M46.866 60.1867H59.2419L59.2419 60.1864C67.0209 60.1864 71.6663 56.4885 71.6663 50.2913C71.6663 46.0438 69.966 43.1076 66.8084 41.8051C68.1048 40.3721 68.7576 38.4198 68.7576 35.9603C68.7576 31.7095 66.9509 26.639 58.3401 26.639H46.866C46.1828 26.639 45.6272 27.1946 45.6272 27.8808V58.9419C45.6264 59.2712 45.7565 59.5874 45.9888 59.8209C46.2211 60.0543 46.5367 60.1859 46.866 60.1867ZM15.5688 60.1864H41.2733L41.2706 60.1832C41.5089 60.1811 41.7415 60.1108 41.941 59.9804C42.1404 59.8501 42.2982 59.6652 42.3958 59.4478C42.4933 59.2304 42.5263 58.9896 42.491 58.754C42.4558 58.5184 42.3536 58.2978 42.1967 58.1185L33.6435 46.9117C37.2901 45.4758 39.5521 41.9416 39.5521 37.4418C39.5521 30.6769 35.0767 26.6387 27.5772 26.6387H15.5688C14.8856 26.6387 14.333 27.1943 14.333 27.8805V58.9416C14.3322 59.1045 14.3636 59.266 14.4253 59.4168C14.487 59.5676 14.5778 59.7047 14.6926 59.8204C14.8074 59.936 14.9439 60.0279 15.0942 60.0907C15.2446 60.1535 15.4058 60.186 15.5688 60.1864Z" fill="white"/>
<defs>
<linearGradient id="paint0_linear_238_22468" x1="43" y1="0" x2="43" y2="86.0001" gradientUnits="userSpaceOnUse">
<stop stop-color="#E41321"/>
<stop offset="1" stop-color="#E41321" stop-opacity="0.7"/>
</linearGradient>
</defs>
</svg>
