<svg width="12" height="12" viewBox="0 0 12 12" fill="none" xmlns="http://www.w3.org/2000/svg">
<path d="M5.64753 2.85075L3.943 1.14619C3.91083 1.11403 3.86948 1.08647 3.82354 1.06809C3.81894 1.06809 3.81433 1.06809 3.80974 1.06349C3.77298 1.04971 3.73163 1.04053 3.69028 1.04053C3.59839 1.04053 3.51111 1.07727 3.44678 1.14159L1.73763 2.85075C1.60439 2.98399 1.60439 3.20453 1.73763 3.33777C1.87086 3.47101 2.09143 3.47101 2.22467 3.33777L3.35029 2.21211V9.65517C3.35029 9.84354 3.5065 9.99976 3.69488 9.99976C3.88325 9.99976 4.03946 9.84354 4.03946 9.65517V2.21671L5.16052 3.33777C5.22943 3.40668 5.31674 3.43883 5.40404 3.43883C5.49133 3.43883 5.57861 3.40668 5.64753 3.33777C5.78077 3.20453 5.78077 2.98859 5.64753 2.85075Z" fill="#3A6CFF"/>
<path d="M10.4942 7.70252C10.361 7.56928 10.1404 7.56928 10.0072 7.70252L8.88154 8.82817V1.38511C8.88154 1.19674 8.72533 1.04053 8.53696 1.04053C8.34858 1.04053 8.19237 1.19674 8.19237 1.38511V8.82357L7.07132 7.70252C6.93808 7.56928 6.71754 7.56928 6.5843 7.70252C6.45107 7.83576 6.45107 8.05629 6.5843 8.18953L8.28884 9.89409C8.321 9.92625 8.36235 9.95381 8.4083 9.97219C8.41289 9.97219 8.4175 9.97219 8.4221 9.97679C8.45885 9.99057 8.50021 9.99976 8.54156 9.99976C8.63345 9.99976 8.72073 9.96301 8.78505 9.89869L10.4942 8.18953C10.6274 8.0517 10.6274 7.83576 10.4942 7.70252Z" fill="#3A6CFF" fill-opacity="0.5"/>
</svg>
