<svg width="157" height="157" viewBox="0 0 157 157" fill="none" xmlns="http://www.w3.org/2000/svg">
<circle cx="78.7701" cy="78.8287" r="77.5865" stroke="#BCC5EA" stroke-opacity="0.25" stroke-width="0.742455"/>
<path d="M59.0844 76.2414H65.7933V74.3837H62.1849C63.7352 73.1943 65.6463 71.4837 65.6463 69.3454C65.6463 67.7016 64.6573 66.4053 62.4388 66.4053C60.6614 66.4053 59.1245 67.421 59.0577 69.7865H61.2628C61.2628 68.8643 61.6637 68.3298 62.3453 68.3298C63.0402 68.3298 63.361 68.7841 63.361 69.4924C63.361 71.1362 61.1559 72.8335 59.0844 74.5441V76.2414ZM68.4031 71.1362C67.4676 71.5773 66.9197 72.4058 66.9197 73.5151C66.9197 75.4662 68.5368 76.5621 70.528 76.5621C72.5193 76.5621 74.1364 75.4662 74.1364 73.5151C74.1364 72.4058 73.5884 71.5906 72.6396 71.1362C73.3746 70.7487 73.8958 70.0404 73.8958 69.0381C73.8958 67.6482 72.8267 66.4187 70.528 66.4187C68.2294 66.4187 67.1469 67.6482 67.1469 69.0381C67.1469 70.0671 67.6547 70.7353 68.4031 71.1362ZM70.528 70.5215C69.8732 70.5215 69.3787 70.1072 69.3787 69.3989C69.3787 68.6505 69.8465 68.2362 70.528 68.2362C71.2096 68.2362 71.6774 68.6505 71.6774 69.3855C71.6774 70.0938 71.1829 70.5215 70.528 70.5215ZM70.528 72.1252C71.3433 72.1252 71.9046 72.6063 71.9046 73.4082C71.9046 74.1298 71.3967 74.6911 70.528 74.6911C69.646 74.6911 69.1248 74.1432 69.1248 73.4082C69.1248 72.5796 69.7128 72.1252 70.528 72.1252ZM78.0701 66.6325V68.5837H82.2264L78.8319 76.375H81.1706L84.525 68.3298V66.6325H78.0701ZM86.5318 76.375H88.9106V66.6191H85.2087V68.744H86.5318V76.375ZM92.0776 71.1362C91.1421 71.5773 90.5942 72.4058 90.5942 73.5151C90.5942 75.4662 92.2112 76.5621 94.2025 76.5621C96.1938 76.5621 97.8108 75.4662 97.8108 73.5151C97.8108 72.4058 97.2629 71.5906 96.314 71.1362C97.0491 70.7487 97.5703 70.0404 97.5703 69.0381C97.5703 67.6482 96.5011 66.4187 94.2025 66.4187C91.9039 66.4187 90.8214 67.6482 90.8214 69.0381C90.8214 70.0671 91.3292 70.7353 92.0776 71.1362ZM94.2025 70.5215C93.5476 70.5215 93.0532 70.1072 93.0532 69.3989C93.0532 68.6505 93.5209 68.2362 94.2025 68.2362C94.8841 68.2362 95.3518 68.6505 95.3518 69.3855C95.3518 70.0938 94.8573 70.5215 94.2025 70.5215ZM94.2025 72.1252C95.0177 72.1252 95.579 72.6063 95.579 73.4082C95.579 74.1298 95.0712 74.6911 94.2025 74.6911C93.3205 74.6911 92.7993 74.1432 92.7993 73.4082C92.7993 72.5796 93.3873 72.1252 94.2025 72.1252Z" fill="#191D21"/>
<path d="M41.985 90.2507V93.375H43.066V90.2507L45.7626 85.0951H44.5628L42.5195 89.2885L40.4763 85.0951H39.2765L41.985 90.2507ZM49.6707 87.6729C50.7873 87.6729 51.7377 88.3738 51.7258 89.6449H47.6156C47.7343 88.3738 48.6134 87.6729 49.6707 87.6729ZM52.7118 91.3674H51.5476C51.31 92.0683 50.6923 92.5672 49.7182 92.5672C48.6134 92.5672 47.6868 91.8426 47.6037 90.524H52.8068C52.8306 90.2983 52.8424 90.1082 52.8424 89.8706C52.8424 88.0887 51.607 86.7582 49.7182 86.7582C47.8175 86.7582 46.4989 88.0531 46.4989 90.1082C46.4989 92.1752 47.865 93.4819 49.7182 93.4819C51.3338 93.4819 52.3791 92.5553 52.7118 91.3674ZM53.8654 90.0963C53.8654 92.1158 55.2078 93.4819 56.9422 93.4819C58.142 93.4819 58.9854 92.8642 59.3774 92.1633V93.375H60.4703V86.8652H59.3774V88.0531C58.9973 87.376 58.1657 86.7582 56.9541 86.7582C55.2078 86.7582 53.8654 88.065 53.8654 90.0963ZM59.3774 90.1082C59.3774 91.6406 58.3558 92.5316 57.1679 92.5316C55.98 92.5316 54.9702 91.6287 54.9702 90.0963C54.9702 88.5639 55.98 87.6967 57.1679 87.6967C58.3558 87.6967 59.3774 88.5995 59.3774 90.1082ZM63.3781 89.835C63.3781 88.3263 64.1622 87.863 65.1957 87.863H65.4808V86.7464C64.4473 86.7464 63.7464 87.1978 63.3781 87.9224V86.8652H62.2971V93.375H63.3781V89.835ZM69.8719 90.322C69.8719 92.4722 71.2737 93.4582 72.9843 93.4582C74.6949 93.4582 76.1086 92.4722 76.1086 90.322V85.0951H75.0275V90.3339C75.0275 91.8545 74.2198 92.5078 72.9962 92.5078C71.7726 92.5078 70.953 91.8545 70.953 90.3339V85.0951H69.8719V90.322ZM78.9929 88.065V86.8652H77.9119V96.4636H78.9929V92.1752C79.3968 92.8404 80.2402 93.4819 81.4282 93.4819C83.1744 93.4819 84.5168 92.1158 84.5168 90.0963C84.5168 88.065 83.1744 86.7582 81.4282 86.7582C80.2402 86.7582 79.3849 87.376 78.9929 88.065ZM83.412 90.0963C83.412 91.6287 82.4023 92.5316 81.2024 92.5316C80.0264 92.5316 78.9929 91.6406 78.9929 90.1082C78.9929 88.5995 80.0264 87.6967 81.2024 87.6967C82.4023 87.6967 83.412 88.5639 83.412 90.0963ZM85.9397 93.375H87.0207V84.5843H85.9397V93.375ZM95.0403 90.1082C95.0403 88.0531 93.6029 86.7582 91.7498 86.7582C89.9085 86.7582 88.4592 88.0531 88.4592 90.1082C88.4592 92.1752 89.861 93.4819 91.7022 93.4819C93.5554 93.4819 95.0403 92.1752 95.0403 90.1082ZM89.564 90.1082C89.564 88.4689 90.5975 87.6967 91.7379 87.6967C92.8545 87.6967 93.9355 88.4689 93.9355 90.1082C93.9355 91.7594 92.8308 92.5316 91.7022 92.5316C90.5737 92.5316 89.564 91.7594 89.564 90.1082ZM96.0578 90.0963C96.0578 92.1158 97.4001 93.4819 99.1345 93.4819C100.334 93.4819 101.178 92.8642 101.57 92.1633V93.375H102.663V86.8652H101.57V88.0531C101.19 87.376 100.358 86.7582 99.1464 86.7582C97.4001 86.7582 96.0578 88.065 96.0578 90.0963ZM101.57 90.1082C101.57 91.6406 100.548 92.5316 99.3602 92.5316C98.1723 92.5316 97.1625 91.6287 97.1625 90.0963C97.1625 88.5639 98.1723 87.6967 99.3602 87.6967C100.548 87.6967 101.57 88.5995 101.57 90.1082ZM104.086 90.0963C104.086 92.1158 105.428 93.4819 107.174 93.4819C108.362 93.4819 109.206 92.8761 109.598 92.1514V93.375H110.69V84.5843H109.598V88.0293C109.146 87.2809 108.208 86.7582 107.186 86.7582C105.428 86.7582 104.086 88.065 104.086 90.0963ZM109.598 90.1082C109.598 91.6406 108.576 92.5316 107.388 92.5316C106.2 92.5316 105.19 91.6287 105.19 90.0963C105.19 88.5639 106.2 87.6967 107.388 87.6967C108.576 87.6967 109.598 88.5995 109.598 90.1082ZM117.198 91.605C117.15 89.2766 113.373 90.1201 113.373 88.5758C113.373 88.0531 113.848 87.6729 114.644 87.6729C115.511 87.6729 116.01 88.1481 116.057 88.8015H117.138C117.067 87.5304 116.117 86.7582 114.679 86.7582C113.23 86.7582 112.292 87.5779 112.292 88.5758C112.292 90.9991 116.14 90.1557 116.14 91.605C116.14 92.1396 115.665 92.5672 114.81 92.5672C113.895 92.5672 113.337 92.092 113.278 91.4624H112.161C112.232 92.6504 113.301 93.4819 114.822 93.4819C116.259 93.4819 117.198 92.6741 117.198 91.605Z" fill="#989FBF"/>
<mask id="path-4-inside-1_238_21908" fill="white">
<path d="M32.104 33.3624C30.2567 31.5626 29.3331 30.6627 29.0084 29.5177C28.768 28.6701 28.8075 27.6016 29.1099 26.774C29.5182 25.6561 30.4192 24.8996 32.2213 23.3865C43.115 14.2397 56.4698 8.50306 70.6036 6.89918C72.9417 6.63386 74.1107 6.5012 75.2026 6.97463C76.0109 7.32511 76.8131 8.03209 77.2624 8.78997C77.8693 9.81369 77.8861 11.1031 77.9197 13.682C77.9534 16.2665 77.9702 17.5588 77.5352 18.4857C77.1609 19.2833 76.7125 19.8051 75.9803 20.2952C75.1295 20.8646 73.6864 21.0651 70.8001 21.4659C60.5037 22.896 50.7769 27.0742 42.651 33.5575C40.3733 35.3749 39.2344 36.2836 38.2356 36.5086C37.3761 36.7023 36.6889 36.6683 35.8527 36.3906C34.881 36.068 33.9553 35.1661 32.104 33.3624Z"/>
</mask>
<path d="M32.104 33.3624C30.2567 31.5626 29.3331 30.6627 29.0084 29.5177C28.768 28.6701 28.8075 27.6016 29.1099 26.774C29.5182 25.6561 30.4192 24.8996 32.2213 23.3865C43.115 14.2397 56.4698 8.50306 70.6036 6.89918C72.9417 6.63386 74.1107 6.5012 75.2026 6.97463C76.0109 7.32511 76.8131 8.03209 77.2624 8.78997C77.8693 9.81369 77.8861 11.1031 77.9197 13.682C77.9534 16.2665 77.9702 17.5588 77.5352 18.4857C77.1609 19.2833 76.7125 19.8051 75.9803 20.2952C75.1295 20.8646 73.6864 21.0651 70.8001 21.4659C60.5037 22.896 50.7769 27.0742 42.651 33.5575C40.3733 35.3749 39.2344 36.2836 38.2356 36.5086C37.3761 36.7023 36.6889 36.6683 35.8527 36.3906C34.881 36.068 33.9553 35.1661 32.104 33.3624Z" fill="#46C3E0" fill-opacity="0.6" stroke="#46C3E0" stroke-width="1.48491" mask="url(#path-4-inside-1_238_21908)"/>
<mask id="path-5-inside-2_238_21908" fill="white">
<path d="M20.2443 107.454C17.9276 108.587 16.7693 109.154 15.5819 109.074C14.7028 109.015 13.7099 108.618 13.0325 108.055C12.1175 107.294 11.7086 106.19 10.8909 103.984C6.63164 92.4924 5.34603 80.0664 7.21233 67.8739C9.07862 55.6813 14.0223 44.2089 21.524 34.5174C22.9643 32.6567 23.6844 31.7264 24.7852 31.274C25.6001 30.939 26.6663 30.8571 27.5228 31.0636C28.6798 31.3426 29.6156 32.2297 31.4872 34.0041C33.3631 35.7824 34.3011 36.6716 34.662 37.6297C34.9726 38.4542 35.0339 39.1395 34.8745 40.006C34.6893 41.0129 33.8265 42.187 32.1011 44.5352C26.5879 52.038 22.943 60.7908 21.5235 70.0645C20.104 79.3381 20.9638 88.7805 23.9802 97.5889C24.9243 100.346 25.3963 101.724 25.2718 102.74C25.1647 103.615 24.9013 104.25 24.3583 104.944C23.7273 105.751 22.5663 106.318 20.2443 107.454Z"/>
</mask>
<path d="M20.2443 107.454C17.9276 108.587 16.7693 109.154 15.5819 109.074C14.7028 109.015 13.7099 108.618 13.0325 108.055C12.1175 107.294 11.7086 106.19 10.8909 103.984C6.63164 92.4924 5.34603 80.0664 7.21233 67.8739C9.07862 55.6813 14.0223 44.2089 21.524 34.5174C22.9643 32.6567 23.6844 31.7264 24.7852 31.274C25.6001 30.939 26.6663 30.8571 27.5228 31.0636C28.6798 31.3426 29.6156 32.2297 31.4872 34.0041C33.3631 35.7824 34.3011 36.6716 34.662 37.6297C34.9726 38.4542 35.0339 39.1395 34.8745 40.006C34.6893 41.0129 33.8265 42.187 32.1011 44.5352C26.5879 52.038 22.943 60.7908 21.5235 70.0645C20.104 79.3381 20.9638 88.7805 23.9802 97.5889C24.9243 100.346 25.3963 101.724 25.2718 102.74C25.1647 103.615 24.9013 104.25 24.3583 104.944C23.7273 105.751 22.5663 106.318 20.2443 107.454Z" fill="#04CB00" fill-opacity="0.6" stroke="#04CB00" stroke-width="1.48491" mask="url(#path-5-inside-2_238_21908)"/>
<mask id="path-6-inside-3_238_21908" fill="white">
<path d="M84.7 143.707C84.9348 146.275 85.0522 147.559 84.5551 148.64C84.187 149.441 83.4627 150.227 82.6952 150.66C81.6584 151.245 80.482 151.234 78.1291 151.213C66.1155 151.107 54.276 148.011 43.6996 142.155C33.1232 136.298 24.2167 127.905 17.7521 117.779C16.486 115.796 15.853 114.804 15.7982 113.615C15.7576 112.735 16.04 111.704 16.5232 110.967C17.1759 109.972 18.3267 109.39 20.6282 108.226C22.9349 107.06 24.0883 106.476 25.112 106.46C25.9929 106.445 26.6587 106.619 27.4207 107.061C28.3062 107.575 29.1207 108.783 30.7496 111.199C35.8463 118.759 42.6773 125.039 50.7133 129.489C58.7493 133.939 67.6969 136.397 76.8095 136.705C79.7218 136.804 81.1779 136.853 82.0833 137.331C82.8625 137.742 83.3628 138.215 83.818 138.969C84.347 139.845 84.4647 141.133 84.7 143.707Z"/>
</mask>
<path d="M84.7 143.707C84.9348 146.275 85.0522 147.559 84.5551 148.64C84.187 149.441 83.4627 150.227 82.6952 150.66C81.6584 151.245 80.482 151.234 78.1291 151.213C66.1155 151.107 54.276 148.011 43.6996 142.155C33.1232 136.298 24.2167 127.905 17.7521 117.779C16.486 115.796 15.853 114.804 15.7982 113.615C15.7576 112.735 16.04 111.704 16.5232 110.967C17.1759 109.972 18.3267 109.39 20.6282 108.226C22.9349 107.06 24.0883 106.476 25.112 106.46C25.9929 106.445 26.6587 106.619 27.4207 107.061C28.3062 107.575 29.1207 108.783 30.7496 111.199C35.8463 118.759 42.6773 125.039 50.7133 129.489C58.7493 133.939 67.6969 136.397 76.8095 136.705C79.7218 136.804 81.1779 136.853 82.0833 137.331C82.8625 137.742 83.3628 138.215 83.818 138.969C84.347 139.845 84.4647 141.133 84.7 143.707Z" fill="#3A6CFF" fill-opacity="0.6" stroke="#3A6CFF" stroke-width="1.48491" mask="url(#path-6-inside-3_238_21908)"/>
<mask id="path-7-inside-4_238_21908" fill="white">
<path d="M143.678 84.4207C146.248 84.6422 147.532 84.7529 148.509 85.4328C149.232 85.9361 149.879 86.7877 150.169 87.6195C150.562 88.743 150.345 89.8993 149.909 92.2118C147.263 106.279 140.491 119.306 130.377 129.588C120.264 139.871 107.351 146.857 93.3295 149.737C91.0245 150.21 89.872 150.447 88.7422 150.073C87.9057 149.796 87.0435 149.163 86.5283 148.449C85.8323 147.483 85.7003 146.201 85.4363 143.635C85.1718 141.064 85.0395 139.778 85.3899 138.816C85.6914 137.988 86.0914 137.429 86.7768 136.875C87.5733 136.232 88.9928 135.903 91.8317 135.246C102.502 132.775 112.306 127.315 120.056 119.436C127.805 111.557 133.102 101.664 135.396 90.9541C136.006 88.1047 136.311 86.68 136.941 85.873C137.483 85.1784 138.036 84.7693 138.859 84.4541C139.815 84.0878 141.103 84.1988 143.678 84.4207Z"/>
</mask>
<path d="M143.678 84.4207C146.248 84.6422 147.532 84.7529 148.509 85.4328C149.232 85.9361 149.879 86.7877 150.169 87.6195C150.562 88.743 150.345 89.8993 149.909 92.2118C147.263 106.279 140.491 119.306 130.377 129.588C120.264 139.871 107.351 146.857 93.3295 149.737C91.0245 150.21 89.872 150.447 88.7422 150.073C87.9057 149.796 87.0435 149.163 86.5283 148.449C85.8323 147.483 85.7003 146.201 85.4363 143.635C85.1718 141.064 85.0395 139.778 85.3899 138.816C85.6914 137.988 86.0914 137.429 86.7768 136.875C87.5733 136.232 88.9928 135.903 91.8317 135.246C102.502 132.775 112.306 127.315 120.056 119.436C127.805 111.557 133.102 101.664 135.396 90.9541C136.006 88.1047 136.311 86.68 136.941 85.873C137.483 85.1784 138.036 84.7693 138.859 84.4541C139.815 84.0878 141.103 84.1988 143.678 84.4207Z" fill="#E41321" fill-opacity="0.6" stroke="#E41321" stroke-width="1.48491" mask="url(#path-7-inside-4_238_21908)"/>
<mask id="path-8-inside-5_238_21908" fill="white">
<path d="M78.7682 13.6764C78.7682 11.0975 78.7682 9.80797 79.3618 8.77641C79.8012 8.01274 80.5942 7.29536 81.3979 6.93439C82.4835 6.4468 83.6541 6.56425 85.9952 6.79915C93.4474 7.54687 100.753 9.44816 107.648 12.4478C116.76 16.4122 124.958 22.2102 131.732 29.4807C138.506 36.7511 143.71 45.3384 147.021 54.7077C149.526 61.7969 150.907 69.2189 151.126 76.7054C151.195 79.0572 151.23 80.2331 150.667 81.2816C150.25 82.0579 149.478 82.7982 148.686 83.1825C147.615 83.7017 146.328 83.6107 143.756 83.4285C141.177 83.2459 139.888 83.1546 139.001 82.6437C138.238 82.204 137.755 81.7136 137.328 80.943C136.832 80.0475 136.753 78.5927 136.594 75.6832C136.295 70.1855 135.213 64.7459 133.371 59.5315C130.722 52.0361 126.558 45.1663 121.139 39.3499C115.72 33.5335 109.162 28.8951 101.872 25.7236C96.8008 23.5172 91.4513 22.0537 85.9884 21.3672C83.0973 21.0039 81.6517 20.8223 80.7936 20.2639C80.0551 19.7834 79.5999 19.2675 79.2152 18.4749C78.7682 17.5538 78.7682 16.2613 78.7682 13.6764Z"/>
</mask>
<path d="M78.7682 13.6764C78.7682 11.0975 78.7682 9.80797 79.3618 8.77641C79.8012 8.01274 80.5942 7.29536 81.3979 6.93439C82.4835 6.4468 83.6541 6.56425 85.9952 6.79915C93.4474 7.54687 100.753 9.44816 107.648 12.4478C116.76 16.4122 124.958 22.2102 131.732 29.4807C138.506 36.7511 143.71 45.3384 147.021 54.7077C149.526 61.7969 150.907 69.2189 151.126 76.7054C151.195 79.0572 151.23 80.2331 150.667 81.2816C150.25 82.0579 149.478 82.7982 148.686 83.1825C147.615 83.7017 146.328 83.6107 143.756 83.4285C141.177 83.2459 139.888 83.1546 139.001 82.6437C138.238 82.204 137.755 81.7136 137.328 80.943C136.832 80.0475 136.753 78.5927 136.594 75.6832C136.295 70.1855 135.213 64.7459 133.371 59.5315C130.722 52.0361 126.558 45.1663 121.139 39.3499C115.72 33.5335 109.162 28.8951 101.872 25.7236C96.8008 23.5172 91.4513 22.0537 85.9884 21.3672C83.0973 21.0039 81.6517 20.8223 80.7936 20.2639C80.0551 19.7834 79.5999 19.2675 79.2152 18.4749C78.7682 17.5538 78.7682 16.2613 78.7682 13.6764Z" fill="#FF9900" fill-opacity="0.6" stroke="#FF9900" stroke-width="1.48491" mask="url(#path-8-inside-5_238_21908)"/>
</svg>
