<svg width="13" height="13" viewBox="0 0 13 13" fill="none" xmlns="http://www.w3.org/2000/svg">
<path opacity="0.4" d="M5.31443 2.2121H5.96705V4.69208C5.96705 4.90614 6.14456 5.08365 6.35863 5.08365C6.57269 5.08365 6.7502 4.90614 6.7502 4.69208V2.2121H7.40282C7.61688 2.2121 7.7944 2.03459 7.7944 1.82053C7.7944 1.60647 7.61688 1.42896 7.40282 1.42896H5.31443C5.10037 1.42896 4.92285 1.60647 4.92285 1.82053C4.92285 2.03459 5.10037 2.2121 5.31443 2.2121Z" fill="#3A6CFF"/>
<path opacity="0.4" d="M7.40282 10.8266H6.7502V8.34665C6.7502 8.13259 6.57269 7.95508 6.35863 7.95508C6.14456 7.95508 5.96705 8.13259 5.96705 8.34665V10.8266H5.31443C5.10037 10.8266 4.92285 11.0041 4.92285 11.2182C4.92285 11.4323 5.10037 11.6098 5.31443 11.6098H7.40282C7.61688 11.6098 7.7944 11.4323 7.7944 11.2182C7.7944 11.0041 7.61688 10.8266 7.40282 10.8266Z" fill="#3A6CFF"/>
<path opacity="0.4" d="M1.57133 5.41244C1.63398 5.44898 1.70185 5.46464 1.7645 5.46464C1.90025 5.46464 2.03077 5.39677 2.10387 5.26625L2.43279 4.70238L4.58384 5.94498C4.64127 5.98152 4.70914 5.99719 4.77702 5.99719C4.91276 5.99719 5.04329 5.92931 5.11638 5.79879C5.22602 5.61083 5.15815 5.37067 4.97541 5.26625L2.82958 4.02365L3.15329 3.45978C3.26293 3.27183 3.19505 3.03166 3.01232 2.92724C2.82436 2.8176 2.5842 2.88025 2.47978 3.06821L1.43558 4.87467C1.32072 5.06785 1.38337 5.30279 1.57133 5.41244Z" fill="#3A6CFF"/>
<path opacity="0.4" d="M11.1467 7.62612C10.9587 7.51648 10.7186 7.57913 10.6141 7.76708L10.2852 8.33095L8.13417 7.09358C7.94622 6.98394 7.70605 7.05181 7.60163 7.23454C7.49199 7.4225 7.55986 7.66266 7.7426 7.76708L9.88843 9.00968L9.56473 9.57355C9.45509 9.7615 9.52296 10.0017 9.70569 10.1061C9.76835 10.1426 9.83622 10.1583 9.89887 10.1583C10.0346 10.1583 10.1651 10.0904 10.2382 9.9599L11.2824 8.15344C11.3973 7.9707 11.3346 7.73576 11.1467 7.62612Z" fill="#3A6CFF"/>
<path opacity="0.4" d="M9.89348 4.0238L7.74765 5.2664C7.5597 5.37604 7.49704 5.6162 7.60668 5.79894C7.67978 5.92424 7.8103 5.99734 7.94605 5.99734C8.01392 5.99734 8.0818 5.98167 8.13923 5.94513L10.2851 4.70253L10.614 5.2664C10.6871 5.3917 10.8176 5.46479 10.9533 5.46479C11.0212 5.46479 11.0891 5.44913 11.1465 5.41258C11.3345 5.30294 11.3971 5.06278 11.2875 4.88004L10.2433 3.07358C10.1336 2.88562 9.89348 2.82297 9.71075 2.93261C9.52279 3.04225 9.46014 3.28242 9.56978 3.46515L9.89348 4.0238Z" fill="#3A6CFF"/>
<path opacity="0.4" d="M2.82393 9.01498L4.96976 7.77238C5.15772 7.66274 5.22037 7.42257 5.11073 7.23984C5.00109 7.05188 4.76092 6.98923 4.57819 7.09887L2.43236 8.34147L2.10344 7.7776C1.99379 7.58965 1.75363 7.52699 1.57089 7.63663C1.38294 7.74627 1.32029 7.98644 1.42993 8.16918L2.47413 9.97564C2.54722 10.1009 2.67774 10.174 2.81349 10.174C2.88136 10.174 2.94924 10.1584 3.00667 10.1218C3.19462 10.0122 3.25728 9.77202 3.14763 9.58929L2.82393 9.01498Z" fill="#3A6CFF"/>
<path d="M8.18595 6.51949C8.18595 6.85363 8.09719 7.16167 7.94056 7.43316C7.62208 7.98137 7.03211 8.34684 6.3586 8.34684C5.68509 8.34684 5.09512 7.98137 4.77664 7.43316C4.62001 7.16167 4.53125 6.85363 4.53125 6.51949C4.53125 6.18534 4.62001 5.8773 4.77664 5.60581C5.09512 5.05761 5.68509 4.69214 6.3586 4.69214C7.03211 4.69214 7.62208 5.05761 7.94056 5.60581C8.09719 5.8773 8.18595 6.18534 8.18595 6.51949Z" fill="#3A6CFF"/>
</svg>
